HIERARCHY
ROOT mixamorig:Hips
{
  OFFSET 0.000000 0.000000 0.000000
  CHANNELS 6 Xposition Yposition Zposition Xrotation Yrotation Zrotation
  JOINT mixamorig:Spine
  {
    OFFSET 0.881470 21.810334 -9.076147
    CHANNELS 3 Xrotation Yrotation Zrotation
    JOINT mixamorig:Spine2
    {
      OFFSET 0.881470 21.810334 -9.076147
      CHANNELS 3 Xrotation Yrotation Zrotation
      JOINT mixamorig:Neck
      {
        OFFSET 0.000000 4.674388 0.000000
        CHANNELS 3 Xrotation Yrotation Zrotation
        JOINT mixamorig:Head
        {
          OFFSET 0.000000 4.678088 0.000000
          CHANNELS 3 Xrotation Yrotation Zrotation
          End Site
          {
            OFFSET 0.000000 1.403426 0.000000
          }
        }
      }
      JOINT mixamorig:LeftShoulder
      {
        OFFSET 15.792676 2.209392 -1.224738
        CHANNELS 3 Xrotation Yrotation Zrotation
        JOINT mixamorig:LeftArm
        {
          OFFSET 10.000000 -2.000000 0.000000
          CHANNELS 3 Xrotation Yrotation Zrotation
          JOINT mixamorig:LeftForeArm
          {
            OFFSET 22.361873 0.000000 0.000000
            CHANNELS 3 Xrotation Yrotation Zrotation
            JOINT mixamorig:LeftHand
            {
              OFFSET 20.982234 0.000000 0.000000
              CHANNELS 3 Xrotation Yrotation Zrotation
              End Site
              {
                OFFSET 6.294670 0.000000 0.000000
              }
            }
          }
        }
      }
      JOINT mixamorig:RightShoulder
      {
        OFFSET -15.792676 2.209392 1.224738
        CHANNELS 3 Xrotation Yrotation Zrotation
        JOINT mixamorig:RightArm
        {
          OFFSET -10.000000 -2.000000 0.000000
          CHANNELS 3 Xrotation Yrotation Zrotation
          JOINT mixamorig:RightForeArm
          {
            OFFSET -31.198926 0.000000 0.000000
            CHANNELS 3 Xrotation Yrotation Zrotation
            JOINT mixamorig:RightHand
            {
              OFFSET -31.145146 0.000000 0.000000
              CHANNELS 3 Xrotation Yrotation Zrotation
              End Site
              {
                OFFSET -9.343544 0.000000 0.000000
              }
            }
          }
        }
      }
    }
  }
  JOINT mixamorig:LeftUpLeg
  {
    OFFSET 10.328032 0.296165 2.790499
    CHANNELS 3 Xrotation Yrotation Zrotation
    JOINT mixamorig:LeftLeg
    {
      OFFSET 12.238276 -41.735834 -6.323935
      CHANNELS 3 Xrotation Yrotation Zrotation
      JOINT mixamorig:LeftFoot
      {
        OFFSET 10.293044 -35.926831 16.299592
        CHANNELS 3 Xrotation Yrotation Zrotation
        JOINT mixamorig:LeftToeBase
        {
          OFFSET 1.935367 -5.189186 -6.192034
          CHANNELS 3 Xrotation Yrotation Zrotation
          End Site
          {
            OFFSET 0.580610 -1.556756 -1.857610
          }
        }
      }
    }
  }
  JOINT mixamorig:RightUpLeg
  {
    OFFSET -10.328032 -0.296165 -2.790499
    CHANNELS 3 Xrotation Yrotation Zrotation
    JOINT mixamorig:RightLeg
    {
      OFFSET -6.716455 -33.878452 3.035436
      CHANNELS 3 Xrotation Yrotation Zrotation
      JOINT mixamorig:RightFoot
      {
        OFFSET -12.031321 -38.248560 17.087646
        CHANNELS 3 Xrotation Yrotation Zrotation
        JOINT mixamorig:RightToeBase
        {
          OFFSET -4.660299 -1.482713 -10.654258
          CHANNELS 3 Xrotation Yrotation Zrotation
          End Site
          {
            OFFSET -1.398090 -0.444814 -3.196277
          }
        }
      }
    }
  }
}
MOTION
Frames: 14
Frame Time: 0.083333
0.070933 0.194573 0.138402 15.000000 -0.813573 -0.208960 5.175126 -0.115945 0.245806 -22.395765 5.346843 0.428119 0.788106 -5.907528 9.473036 -0.210964 -5.955528 9.340783 0.000000 0.000000 0.000000 -20.609814 24.706869 -79.397211 168.908208 48.465817 174.981736 0.000000 0.000000 0.000000 0.000000 0.000000 0.000000 -28.152027 -29.555852 87.091564 -143.089744 -40.100317 166.110324 0.000000 0.000000 0.000000 -13.612879 -3.953661 0.731816 0.706327 1.028339 1.870053 0.574481 3.928801 -3.035806 0.000000 0.000000 0.000000 -14.728237 2.835336 -0.594434 0.599154 -0.185873 0.004353 -0.849746 -3.069417 0.813128 0.000000 0.000000 0.000000
0.070086 0.195226 0.134605 15.000000 -0.811529 -0.199636 5.175770 -0.116006 0.245711 -22.395886 5.343620 0.418556 0.790877 -5.925586 9.476556 -0.211570 -5.974101 9.343927 0.000000 0.000000 0.000000 -20.581345 24.685121 -79.369104 168.822810 48.527595 174.932797 0.000000 0.000000 0.000000 0.000000 0.000000 0.000000 -28.158931 -29.563947 87.089716 -143.091747 -40.048167 166.129130 0.000000 0.000000 0.000000 -13.625851 -3.956959 0.717191 0.657880 1.005500 1.849151 0.385640 3.873419 -3.057138 0.000000 0.000000 0.000000 -14.729650 2.834549 -0.599092 0.582117 -0.181425 0.002083 -0.853720 -3.000990 0.805410 0.000000 0.000000 0.000000
0.068633 0.197023 0.127591 15.000000 -0.831482 -0.289681 5.175803 -0.115632 0.246740 -22.396964 5.314819 0.508288 0.094460 -6.037825 9.325617 -0.889943 -5.973504 9.265380 0.000000 0.000000 0.000000 -20.797995 24.983700 -79.273411 170.115848 46.325128 175.758346 0.000000 0.000000 0.000000 0.000000 0.000000 0.000000 -28.429403 -29.817024 87.149283 -143.747613 -39.211163 166.695475 0.000000 0.000000 0.000000 -13.651009 -3.967333 0.874619 1.981301 1.537854 2.273776 2.303708 5.123922 -3.367420 0.000000 0.000000 0.000000 -14.986331 2.879361 -0.628291 1.193499 -0.387773 -0.032766 -1.043738 -4.587643 1.119317 0.000000 0.000000 0.000000
0.067804 0.199882 0.121321 15.000000 -0.843995 -0.345738 5.178549 -0.115494 0.247432 -22.399020 5.259800 0.562632 -0.500392 -6.240420 9.189553 -1.485126 -6.082616 9.193010 0.000000 0.000000 0.000000 -20.895395 25.191562 -79.060614 170.514379 44.502178 176.111225 0.000000 0.000000 0.000000 0.000000 0.000000 0.000000 -28.805648 -30.177881 87.212527 -143.859402 -37.687335 167.299161 0.000000 0.000000 0.000000 -13.670711 -3.974712 0.960442 2.851662 1.848860 2.482998 2.362983 5.524095 -3.659858 0.000000 0.000000 0.000000 -15.222636 2.921575 -0.650966 1.590884 -0.502976 -0.012810 -1.220142 -5.436934 1.323377 0.000000 0.000000 0.000000
0.067545 0.203807 0.115928 15.000000 -0.867265 -0.450784 5.178504 -0.115056 0.248632 -22.402221 5.174115 0.665530 -1.053872 -6.401451 8.980049 -2.023778 -6.164224 9.048705 0.000000 0.000000 0.000000 -21.169690 25.543042 -79.005276 170.127395 42.563841 176.155212 0.000000 0.000000 0.000000 0.000000 0.000000 0.000000 -29.339133 -30.642129 87.390714 -142.637036 -35.478424 167.675168 0.000000 0.000000 0.000000 -13.475564 -3.923961 1.107690 3.503980 2.041595 2.549485 1.718729 5.130268 -3.588234 0.000000 0.000000 0.000000 -15.379205 2.959993 -0.620494 1.797673 -0.507991 0.125555 -1.245510 -5.933033 1.405775 0.000000 0.000000 0.000000
0.067594 0.208006 0.111553 15.000000 -0.885180 -0.531066 5.182838 -0.114871 0.249634 -22.408719 5.000028 0.740073 -1.727170 -6.545452 8.575249 -2.655612 -6.224539 8.725060 0.000000 0.000000 0.000000 -21.508605 25.956971 -78.983514 168.129831 41.032886 175.561316 0.000000 0.000000 0.000000 0.000000 0.000000 0.000000 -30.120253 -31.180599 87.910054 -140.138978 -32.834748 167.829670 0.000000 0.000000 0.000000 -13.189653 -3.849142 1.268470 3.808813 2.069498 2.429842 0.839718 4.262673 -3.215080 0.000000 0.000000 0.000000 -15.389941 2.962377 -0.619416 1.750471 -0.426373 0.281567 -1.012660 -6.176735 1.328361 0.000000 0.000000 0.000000
0.067684 0.211827 0.108296 15.000000 -0.913701 -0.658249 5.194297 -0.114736 0.251311 -22.418008 4.751088 0.858720 -2.250453 -6.307304 7.889832 -3.059602 -5.952617 8.100126 0.000000 0.000000 0.000000 -22.001708 26.529961 -79.018805 164.291411 39.857981 174.286091 0.000000 0.000000 0.000000 0.000000 0.000000 0.000000 -31.378118 -31.883538 89.011109 -136.597371 -30.086745 167.849891 0.000000 0.000000 0.000000 -13.033799 -3.814158 1.562190 4.138324 2.095373 2.288991 -0.189257 2.942246 -2.500386 0.000000 0.000000 0.000000 -15.236059 2.936968 -0.595358 1.534468 -0.271137 0.484635 -0.720992 -6.022047 1.166568 0.000000 0.000000 0.000000
0.067889 0.214924 0.105678 15.000000 -0.938201 -0.768778 5.195260 -0.114308 0.252596 -22.428917 4.458317 0.959895 -2.915015 -6.038891 7.046917 -3.590604 -5.652043 7.327623 0.000000 0.000000 0.000000 -22.543226 27.218586 -78.925955 160.714693 38.866345 173.147935 0.000000 0.000000 0.000000 0.000000 0.000000 0.000000 -33.223527 -32.845140 90.658905 -130.258438 -26.899308 167.454518 0.000000 0.000000 0.000000 -12.939599 -3.795846 1.828305 4.763827 2.255008 2.294858 -1.325772 1.306988 -1.526055 0.000000 0.000000 0.000000 -14.852628 2.872598 -0.540272 1.274486 -0.135978 0.607336 -0.604226 -5.524668 1.041241 0.000000 0.000000 0.000000
0.068267 0.217226 0.103721 15.000000 -0.947661 -0.811999 5.191621 -0.114002 0.253021 -22.439234 4.181059 0.994032 -3.619937 -5.713106 6.336651 -4.177148 -5.301457 6.683334 0.000000 0.000000 0.000000 -23.134070 27.973273 -78.821334 158.383041 37.831517 172.519637 0.000000 0.000000 0.000000 0.000000 0.000000 0.000000 -35.256497 -33.707555 92.714447 -120.407934 -23.520430 166.476995 0.000000 0.000000 0.000000 -12.873917 -3.782314 1.975179 5.454888 2.472295 2.406055 -2.186707 0.090174 -0.770397 0.000000 0.000000 0.000000 -14.721254 2.847001 -0.536629 1.462869 -0.148486 0.716895 -0.856855 -5.093616 1.101825 0.000000 0.000000 0.000000
0.068840 0.218690 0.102469 15.000000 -0.946141 -0.802225 5.213927 -0.114809 0.253348 -22.454502 3.770625 0.968172 -4.619536 -5.690436 5.707839 -5.096071 -5.231250 6.162119 0.000000 0.000000 0.000000 -23.693518 28.698524 -78.702639 156.818017 36.698117 172.222708 0.000000 0.000000 0.000000 0.000000 0.000000 0.000000 -36.912843 -34.346734 94.385341 -111.297471 -20.836145 165.752768 0.000000 0.000000 0.000000 -12.785455 -3.762009 2.092617 6.112331 2.628055 2.385319 -2.888353 -0.561992 -0.424471 0.000000 0.000000 0.000000 -14.740000 2.852893 -0.527265 1.656596 -0.208762 0.720330 -0.914888 -4.696627 1.073586 0.000000 0.000000 0.000000
0.069446 0.219562 0.101844 15.000000 -0.944471 -0.789225 5.255204 -0.116284 0.254005 -22.474546 3.231180 0.933596 -5.316744 -5.726663 5.363849 -5.750925 -5.237054 5.896314 0.000000 0.000000 0.000000 -24.439348 29.603592 -78.669914 155.079704 35.506787 171.913874 0.000000 0.000000 0.000000 0.000000 0.000000 0.000000 -38.511000 -35.234548 95.455561 -103.235888 -18.458396 165.337080 0.000000 0.000000 0.000000 -12.702456 -3.743397 2.210909 6.870282 2.778126 2.283417 -3.696982 -1.143985 -0.164610 0.000000 0.000000 0.000000 -14.793932 2.866673 -0.514302 1.889405 -0.286526 0.711780 -0.882334 -4.095636 0.973358 0.000000 0.000000 0.000000
0.070077 0.220156 0.101510 15.000000 -0.936934 -0.744838 5.332161 -0.119121 0.254988 -22.497637 2.609477 0.862798 -5.540255 -5.730973 5.330803 -5.967461 -5.226661 5.887939 0.000000 0.000000 0.000000 -25.394922 30.651963 -78.849029 153.636668 33.828059 171.862302 0.000000 0.000000 0.000000 0.000000 0.000000 0.000000 -39.520275 -36.110126 95.555144 -101.506057 -17.426097 165.731988 0.000000 0.000000 0.000000 -12.583728 -3.715594 2.332694 7.552978 2.864161 2.057746 -4.404323 -1.374992 -0.178211 0.000000 0.000000 0.000000 -14.840536 2.870694 -0.537853 2.183626 -0.380305 0.710975 -0.889114 -3.326672 0.867645 0.000000 0.000000 0.000000
0.070546 0.220557 0.101067 15.000000 -0.924854 -0.682698 5.385953 -0.121242 0.255295 -22.500621 2.529295 0.794970 -5.839680 -5.688987 5.213102 -6.247885 -5.172748 5.798876 0.000000 0.000000 0.000000 -25.878056 31.185678 -78.926622 151.285995 32.615689 171.442658 0.000000 0.000000 0.000000 0.000000 0.000000 0.000000 -40.197982 -36.537053 95.890904 -97.670104 -16.848449 165.236729 0.000000 0.000000 0.000000 -12.420184 -3.675509 2.431480 7.901948 2.861348 1.811931 -4.767775 -1.549042 -0.133213 0.000000 0.000000 0.000000 -14.948416 2.881748 -0.584611 2.537861 -0.488653 0.720530 -0.898436 -2.768666 0.792496 0.000000 0.000000 0.000000
0.070689 0.220856 0.100535 15.000000 -0.922094 -0.666048 5.415996 -0.122351 0.255674 -22.495384 2.670792 0.781820 -6.010286 -5.575959 5.078628 -6.397167 -5.061451 5.670865 0.000000 0.000000 0.000000 -26.128206 31.481469 -78.928095 148.883600 31.677574 170.972849 0.000000 0.000000 0.000000 0.000000 0.000000 0.000000 -40.549367 -36.598204 96.329537 -94.115774 -16.760114 164.377892 0.000000 0.000000 0.000000 -12.263673 -3.638280 2.552933 7.987096 2.818593 1.635860 -5.010682 -1.769310 -0.006918 0.000000 0.000000 0.000000 -15.094836 2.905107 -0.611082 2.874790 -0.568084 0.785723 -0.899202 -2.300540 0.725917 0.000000 0.000000 0.000000
